<svg width="58" height="58" viewBox="0 0 58 58" fill="none" xmlns="http://www.w3.org/2000/svg">
    <path d="M29 0C12.992 0 0 12.992 0 29C0 45.008 12.992 58 29 58C45.008 58 58 45.008 58 29C58 12.992 45.008 0 29 0ZM29 8.7C33.814 8.7 37.7 12.586 37.7 17.4C37.7 22.214 33.814 26.1 29 26.1C24.186 26.1 20.3 22.214 20.3 17.4C20.3 12.586 24.186 8.7 29 8.7ZM29 49.88C21.75 49.88 15.341 46.168 11.6 40.542C11.687 34.771 23.2 31.61 29 31.61C34.771 31.61 46.313 34.771 46.4 40.542C42.659 46.168 36.25 49.88 29 49.88Z" fill="white" />
</svg>
